<svg xmlns="http://www.w3.org/2000/svg" viewBox="0 0 1024 1024" width="1024" height="1024" role="img" aria-label="Hublot">
  <!-- Colored variant of hublot-mark.svg: same geometry, brass ring and teal glass
       taken from the site palette, instead of currentColor. -->
  <defs>
    <linearGradient id="brass" x1="15%" y1="10%" x2="85%" y2="90%">
      <stop offset="0%" stop-color="#f1cf7d" />
      <stop offset="45%" stop-color="#caa03f" />
      <stop offset="100%" stop-color="#8a651f" />
    </linearGradient>
    <radialGradient id="glass" cx="38%" cy="32%" r="75%">
      <stop offset="0%" stop-color="#eafbf9" />
      <stop offset="60%" stop-color="#cdeeea" />
      <stop offset="100%" stop-color="#a9dcd6" />
    </radialGradient>
  </defs>

  <path fill-rule="evenodd" clip-rule="evenodd" fill="url(#brass)" d="
    M512,30.72 a481.28,481.28 0 1,0 0.51,0 Z
    M512,133.12 a378.88,378.88 0 1,0 0.51,0 Z
  "/>

  <circle cx="512" cy="512" r="378.88" fill="url(#glass)" />

  <g fill="#5f430f">
    <circle cx="512" cy="81.92" r="25.6" />
    <circle cx="816.26" cy="207.74" r="25.6" />
    <circle cx="942.08" cy="512" r="25.6" />
    <circle cx="816.26" cy="816.26" r="25.6" />
    <circle cx="512" cy="942.08" r="25.6" />
    <circle cx="207.74" cy="816.26" r="25.6" />
    <circle cx="81.92" cy="512" r="25.6" />
    <circle cx="207.74" cy="207.74" r="25.6" />
  </g>
  <g fill="#f4dda0" opacity="0.55">
    <circle cx="504" cy="73.92" r="7" />
    <circle cx="808.26" cy="199.74" r="7" />
    <circle cx="934.08" cy="504" r="7" />
    <circle cx="808.26" cy="808.26" r="7" />
    <circle cx="504" cy="934.08" r="7" />
    <circle cx="199.74" cy="808.26" r="7" />
    <circle cx="73.92" cy="504" r="7" />
    <circle cx="199.74" cy="199.74" r="7" />
  </g>

  <clipPath id="hublot-wave-inset">
    <circle cx="512" cy="512" r="317.44" />
  </clipPath>
  <path clip-path="url(#hublot-wave-inset)" fill="#0f6a67"
        d="M194.56,512 C296.96,466.12 378.88,466.12 512,512 C645.12,558.08 727.04,558.08 829.44,512 L829.44,1024 L194.56,1024 Z" />
</svg>
